<?xml version="1.0" encoding="UTF-8"?>
<svg id="Layer_2" data-name="Layer 2" xmlns="http://www.w3.org/2000/svg" xmlns:xlink="http://www.w3.org/1999/xlink" viewBox="0 0 151.57 29.93">
  <defs>
    <style>
      .cls-1 {
        fill: url(#linear-gradient);
      }

      .cls-1, .cls-2 {
        stroke-width: 0px;
      }

      .cls-2 {
        fill: url(#linear-gradient-2);
      }
    </style>
    <linearGradient id="linear-gradient" x1="62.36" y1="8.88" x2="91.45" y2="8.88" gradientUnits="userSpaceOnUse">
      <stop offset=".02" stop-color="#d32027"/>
      <stop offset=".34" stop-color="#8e526d"/>
      <stop offset=".65" stop-color="#537ea9"/>
      <stop offset=".88" stop-color="#2f98ce"/>
      <stop offset="1" stop-color="#22a3dd"/>
    </linearGradient>
    <linearGradient id="linear-gradient-2" x1="66.51" y1="22.36" x2="90.17" y2="22.36" gradientUnits="userSpaceOnUse">
      <stop offset="0" stop-color="#ed2024"/>
      <stop offset="1" stop-color="#22a3dd"/>
    </linearGradient>
  </defs>
  <g id="Layer_3" data-name="Layer 3">
    <path class="cls-1" d="M66.13,16.2h2.53s.76-2.59,1.3,0h.65l.54-4.32s.43-.54.65,0l.43,4.32h.65l.54-1.95s.43-.65.65,0l.32,1.95h2.81l.54-1.84s.32-.43.54,0,.43,1.62.43,1.62h.65l.43-7.03s.32-.86.76,0l.32,6.92h.65l.54-3.24s.32-.65.54,0l.43,3.24h1.3s.65-2.05,1.3,0h.65l.43-3.57s.43-.65.76,0l.32,3.57h.76l.54-1.62s.32-.65.54,0l.32,1.62h.76s4.22-4.86.86-10.7c-3.35-5.84-10.92-3.78-12.76,2.81,0,0-3.06-7.06-8.32-6.38-11.9,1.54-4.37,14.59-4.37,14.59Z"/>
    <path class="cls-2" d="M66.51,16.95h2.37l.32-.54.32.54h.54s0,1.95.11,2.05.32.43.76,0l.32-3.46v1.95c.11,0,.76.54.86-.43h.97l.43-1.3s0,1.19.43,1.3,3.57,0,3.57,0c0,0,.22-.32.32-.65,0,0,.22.86.86.86l.22,3.46s.22.65.76,0l.22-5.95.22,3.03s.28.49.65,0v-.54h.97s.43-1.08.43-1.95,0,1.73.43,1.84h1.95s.22-.32.32-.54c0,0,0,.43.32.54s.54,0,.54,0l.22,1.95s.32.43.65,0l.32-3.13v1.73c.01.17.61.51.86,0v-.32h.97s.32-.54.43-1.19c0,0,.22,1.08.32,1.08h.65s-8.22,9.4-11.57,12.65c0,0-11.24-11.13-11.78-12.54l-.31-.43Z"/>
  </g>
</svg>