<?xml version="1.0" encoding="UTF-8"?>
<svg id="Layer_1" data-name="Layer 1" xmlns="http://www.w3.org/2000/svg" xmlns:xlink="http://www.w3.org/1999/xlink" viewBox="0 0 151.57 28.37">
  <defs>
    <style>
      .cls-1 {
        fill: url(#linear-gradient);
      }

      .cls-1, .cls-2, .cls-3, .cls-4 {
        stroke-width: 0px;
      }

      .cls-2 {
        fill: url(#linear-gradient-2);
      }

      .cls-3 {
        fill: url(#linear-gradient-3);
      }

      .cls-4 {
        fill: url(#linear-gradient-4);
      }
    </style>
    <linearGradient id="linear-gradient" x1="41.31" y1="14.21" x2="151.57" y2="14.21" gradientUnits="userSpaceOnUse">
      <stop offset=".17" stop-color="#82b2a1"/>
      <stop offset=".41" stop-color="#abd037"/>
      <stop offset=".72" stop-color="#5b91cc"/>
      <stop offset="1" stop-color="#75aede"/>
    </linearGradient>
    <linearGradient id="linear-gradient-2" x1="125.2" y1="16.75" x2="137.63" y2="16.75" xlink:href="#linear-gradient"/>
    <linearGradient id="linear-gradient-3" x1="-1.42" y1="7.32" x2="27.67" y2="7.32" gradientUnits="userSpaceOnUse">
      <stop offset=".02" stop-color="#d32027"/>
      <stop offset=".34" stop-color="#8e526d"/>
      <stop offset=".65" stop-color="#537ea9"/>
      <stop offset=".88" stop-color="#2f98ce"/>
      <stop offset="1" stop-color="#22a3dd"/>
    </linearGradient>
    <linearGradient id="linear-gradient-4" x1="2.73" y1="20.8" x2="26.39" y2="20.8" gradientUnits="userSpaceOnUse">
      <stop offset="0" stop-color="#ed2024"/>
      <stop offset="1" stop-color="#22a3dd"/>
    </linearGradient>
  </defs>
  <g id="Layer_1-2" data-name="Layer 1">
    <g id="Layer_1-2" data-name="Layer 1-2">
      <path class="cls-1" d="M54.07,20.04c-.86.65-1.95.97-3.13.97s-2.27-.32-3.24-.86-1.62-1.41-2.16-2.38c-.54-1.08-.76-2.16-.76-3.57s.22-2.49.76-3.57c.54-.97,1.19-1.84,2.16-2.38s2.05-.86,3.24-.86,2.27.32,3.13.97c.86.65,1.51,1.41,1.84,2.38l3.13-1.51c-.32-.86-.86-1.73-1.62-2.49s-1.73-1.41-2.81-1.84-2.38-.65-3.68-.65-2.7.22-3.78.76c-1.19.43-2.16,1.19-3.13,2.05-.86.86-1.51,1.95-2.05,3.13-.43,1.19-.65,2.49-.65,4s.22,2.7.76,4c.54,1.19,1.19,2.27,2.05,3.13.86.86,1.95,1.62,3.03,2.05,1.19.54,2.49.76,3.78.76s2.59-.22,3.68-.65,2.05-1.08,2.81-1.84,1.3-1.62,1.62-2.59l-3.13-1.51c-.32.97-.97,1.73-1.84,2.38h0v.11ZM72.55,11.83c-.54-.76-1.19-1.3-2.05-1.73-.86-.43-1.95-.65-3.03-.65s-1.84.11-2.59.43c-.86.32-1.51.76-2.16,1.3-.54.54-.97,1.19-1.3,1.95l2.81,1.3c.22-.65.65-1.19,1.19-1.51.54-.43,1.19-.65,1.95-.65s1.41.22,1.84.65c.43.43.76.86.76,1.51v.43l-4.22.65c-1.08.22-2.05.43-2.7.86-.76.43-1.3.97-1.62,1.51-.32.65-.54,1.3-.54,2.05s.22,1.51.65,2.16.97,1.08,1.73,1.41,1.62.54,2.59.54,1.51,0,2.16-.32c.65-.22,1.19-.54,1.73-.97.22-.22.43-.32.54-.54v1.51h3.24v-9.4c0-.97-.22-1.84-.76-2.59h-.22v.11ZM69.96,18.1c0,.65-.22,1.19-.43,1.73-.32.54-.76.97-1.3,1.3-.54.32-1.19.43-1.84.43s-.97-.11-1.41-.43c-.32-.32-.54-.65-.54-1.19s.22-.86.54-1.19c.32-.32.86-.54,1.51-.65l3.57-.65v.54h-.11v.11ZM83.47,9.56c-.97,0-1.84.22-2.49.65-.54.32-.97.86-1.3,1.51v-1.95h-3.24v14.16h3.35v-7.89c0-1.08.32-1.95.86-2.49.54-.65,1.41-.86,2.38-.86h1.19v-3.03h-.86.11v-.11ZM99.04,13.67c-.32-.86-.76-1.62-1.3-2.16-.54-.65-1.3-1.08-2.16-1.51-.86-.32-1.84-.54-2.92-.54s-2.49.32-3.57.97c-1.08.65-1.95,1.51-2.49,2.59-.65,1.08-.86,2.38-.86,3.78s.32,2.59.86,3.78c.65,1.08,1.41,2.05,2.49,2.7s2.38.97,3.78.97,1.84-.11,2.59-.43c.86-.32,1.51-.76,2.16-1.19.54-.54.97-1.08,1.3-1.84l-2.7-1.3c-.32.54-.76.97-1.3,1.3-.54.32-1.19.54-1.95.54s-1.51-.22-2.05-.54-1.08-.86-1.3-1.51c-.22-.43-.32-.86-.32-1.3h10.16v-1.41c0-.97-.22-1.84-.43-2.59,0,0,0-.32,0-.32ZM89.2,15.18c0-.32,0-.54.22-.86.32-.65.76-1.19,1.3-1.51s1.19-.54,1.95-.54,1.41.22,1.95.54.97.86,1.08,1.51c0,.32.22.54.22.86h-6.7ZM115.47,7.29c-.54-.97-1.41-1.62-2.38-2.05-.97-.43-2.16-.76-3.46-.76h-7.24v19.35h3.57v-7.13h3.68c1.3,0,2.49-.22,3.46-.76.97-.43,1.84-1.19,2.38-2.05s.86-2.05.86-3.24-.32-2.38-.86-3.24h0v-.11ZM112.33,12.15c-.22.43-.65.76-1.08,1.08-.43.22-.97.32-1.62.32h-3.78v-5.95h3.78c.65,0,1.19.11,1.62.43.43.22.86.54,1.08,1.08.22.43.43.97.43,1.51s0,1.08-.43,1.51ZM134.38,21.02v1.08c.11-.22.22-.43.32-.65l-.32-.54h0v.11ZM118.06,4.15v19.67h3.35V4.15h-3.35ZM147.9,15.72l-2.27-.65c-.32-.11-.65-.22-.86-.32-.22-.11-.43-.32-.54-.43-.11-.22-.22-.43-.22-.65,0-.43.22-.76.54-.97.32-.22.76-.43,1.3-.43s1.3.22,1.95.54c.54.32.97.86,1.19,1.51l2.59-1.19c-.43-1.19-1.19-2.05-2.16-2.7s-2.16-.97-3.57-.97-1.95.22-2.7.54-1.41.86-1.84,1.51-.65,1.41-.65,2.27.32,1.84.86,2.49c.65.76,1.51,1.3,2.7,1.62l2.27.65c.32,0,.54.22.86.32.22.11.43.22.54.43.11.22.22.43.22.65,0,.43-.22.86-.54,1.08-.32.32-.86.43-1.51.43s-1.51-.22-2.16-.65-1.19-1.08-1.51-1.84l-2.49,1.19c.43,1.19,1.19,2.16,2.27,2.92s2.38,1.08,3.89,1.08,2.05-.22,2.81-.54c.76-.32,1.41-.86,1.84-1.51s.65-1.41.65-2.27-.32-1.84-.97-2.49c-.65-.65-1.51-1.19-2.7-1.51h.22v-.11Z"/>
      <path class="cls-2" d="M137.63,9.67v14.16h-3.24v-1.62c.11-.22.22-.43.32-.65l-.32-.54v1.08c-.32.54-.76.97-1.3,1.3-.76.43-1.62.65-2.59.65s-2.05-.22-2.81-.76c-.76-.54-1.41-1.19-1.84-2.05s-.65-1.84-.65-3.03v-8.65h3.35v8.32c0,.54.11,1.08.32,1.51s.54.76.97,1.08c.43.22.97.32,1.51.32s1.08-.11,1.51-.32c.43-.22.76-.65.97-1.08s.32-.97.32-1.62v-8.32h3.46v.22h0Z"/>
    </g>
  </g>
  <g id="Layer_3" data-name="Layer 3">
    <path class="cls-3" d="M2.35,14.64h2.53s.76-2.59,1.3,0h.65l.54-4.32s.43-.54.65,0l.43,4.32h.65l.54-1.95s.43-.65.65,0l.32,1.95h2.81l.54-1.84s.32-.43.54,0,.43,1.62.43,1.62h.65l.43-7.03s.32-.86.76,0l.32,6.92h.65l.54-3.24s.32-.65.54,0l.43,3.24h1.3s.65-2.05,1.3,0h.65l.43-3.57s.43-.65.76,0l.32,3.57h.76l.54-1.62s.32-.65.54,0l.32,1.62h.76s4.22-4.86.86-10.7S16.88-.17,15.04,6.42C15.04,6.42,11.98-.63,6.72.05-5.18,1.58,2.35,14.64,2.35,14.64Z"/>
    <path class="cls-4" d="M2.73,15.4h2.37l.32-.54.32.54h.54s0,1.95.11,2.05.32.43.76,0l.32-3.46v1.95c.11,0,.76.54.86-.43h.97l.43-1.3s0,1.19.43,1.3,3.57,0,3.57,0c0,0,.22-.32.32-.65,0,0,.22.86.86.86l.22,3.46s.22.65.76,0l.22-5.95.22,3.03s.28.49.65,0v-.54h.97s.43-1.08.43-1.95,0,1.73.43,1.84h1.95s.22-.32.32-.54c0,0,0,.43.32.54s.54,0,.54,0l.22,1.95s.32.43.65,0l.32-3.13v1.73c.01.17.61.51.86,0v-.32h.97s.32-.54.43-1.19c0,0,.22,1.08.32,1.08h.65s-8.22,9.4-11.57,12.65c0,0-11.24-11.13-11.78-12.54l-.31-.43Z"/>
  </g>
</svg>